<svg xmlns="http://www.w3.org/2000/svg" viewBox="0 0 100 100"><path fill="#60be92" d="M70 18.988H31c-6.6 0-12 5.4-12 12v39c0 6.6 5.4 12 12 12h39c6.6 0 12-5.4 12-12v-39c0-6.6-5.4-12-12-12z"/><path fill="#1f212b" d="M70 82.988H31c-7.18 0-13-5.82-13-13v-39c0-7.18 5.82-13 13-13h39c7.18 0 13 5.82 13 13v39c0 7.18-5.821 13-13 13zm-50-52v39c0 6.075 4.925 11 11 11h39c6.075 0 11-4.925 11-11v-39c0-6.075-4.925-11-11-11H31c-6.076 0-11 4.925-11 11z"/><path fill="#1f212b" d="M67.162 77.988H33.837C27.852 77.988 23 73.136 23 67.151V33.825c0-5.985 4.852-10.837 10.837-10.837H67.5a.5.5 0 0 1 0 1H33.837c-5.433 0-9.837 4.404-9.837 9.837V67.15c0 5.433 4.405 9.838 9.838 9.838h33.325c5.433 0 9.837-4.404 9.837-9.837V48.488a.5.5 0 0 1 1 0V67.15c0 5.986-4.853 10.838-10.838 10.838zM77.5 45.567a.5.5 0 0 1-.5-.5v-4a.5.5 0 0 1 1 0v4a.5.5 0 0 1-.5.5zm0-6a.5.5 0 0 1-.5-.5v-2a.5.5 0 0 1 1 0v2a.5.5 0 0 1-.5.5z"/><path fill="#fff" d="M38.224 31.373c.988 1.486 3.012 4.655 4.343 6.747a3.892 3.892 0 0 1 .062 4.069l-.302.509a3.889 3.889 0 0 0 .281 4.38c1.351 1.721 3.356 4.167 5.263 6.074 1.94 1.939 4.494 4.1 6.267 5.55a3.774 3.774 0 0 0 4.358.308l.557-.338a3.77 3.77 0 0 1 3.907-.009c2.058 1.238 5.198 3.143 6.69 4.135a1.966 1.966 0 0 1 .747 2.334c-.96 2.584-2.529 5.368-7.497 5.368-5.718 0-13.631-6.189-19.904-12.459l-.007-.007-.007-.007C36.711 51.754 30.5 44.163 30.5 38.305c0-5.33 2.807-6.718 5.391-7.679a1.968 1.968 0 0 1 2.333.747z"/><path fill="none" stroke="#1f212b" stroke-linecap="round" stroke-linejoin="round" stroke-miterlimit="10" d="M38.224 31.373c.988 1.486 3.012 4.655 4.343 6.747a3.892 3.892 0 0 1 .062 4.069l-.302.509a3.889 3.889 0 0 0 .281 4.38c1.351 1.721 3.356 4.167 5.263 6.074 1.94 1.939 4.494 4.1 6.267 5.55a3.774 3.774 0 0 0 4.358.308l.557-.338a3.77 3.77 0 0 1 3.907-.009c2.058 1.238 5.198 3.143 6.69 4.135a1.966 1.966 0 0 1 .747 2.334c-.96 2.584-2.529 5.368-7.497 5.368-5.718 0-13.631-6.189-19.904-12.459h0l-.007-.007-.007-.007h0C36.711 51.754 30.5 44.163 30.5 38.305c0-5.33 2.807-6.718 5.391-7.679a1.968 1.968 0 0 1 2.333.747z"/></svg>