<svg xmlns="http://www.w3.org/2000/svg" viewBox="0 0 100 100"><path fill="#fdfcee" d="M69.921 81.654h-39c-6.6 0-12-5.4-12-12v-39c0-6.6 5.4-12 12-12h39c6.6 0 12 5.4 12 12v39c0 6.6-5.4 12-12 12z"/><path fill="#1f212b" d="M69.921 82.654h-39c-7.168 0-13-5.832-13-13v-39c0-7.168 5.832-13 13-13h39c7.168 0 13 5.832 13 13v39c0 7.168-5.832 13-13 13zm-39-63c-6.065 0-11 4.935-11 11v39c0 6.065 4.935 11 11 11h39c6.065 0 11-4.935 11-11v-39c0-6.065-4.935-11-11-11h-39z"/><path fill="#fdfcee" d="M77.421 48.154v18.663c0 5.685-4.652 10.337-10.337 10.337H33.758c-5.685 0-10.337-4.652-10.337-10.337V33.491c0-5.685 4.652-10.337 10.337-10.337h33.663"/><path fill="#1f212b" d="M67.084 77.654H33.758c-5.976 0-10.837-4.861-10.837-10.837V33.49c0-5.976 4.861-10.837 10.837-10.837h33.663a.5.5 0 0 1 0 1H33.758c-5.424 0-9.837 4.413-9.837 9.837v33.326c0 5.424 4.413 9.837 9.837 9.837h33.326c5.424 0 9.837-4.413 9.837-9.837V48.154a.5.5 0 0 1 1 0v18.663c0 5.975-4.861 10.837-10.837 10.837z"/><path fill="#1f212b" d="M77.421 46.654a.5.5 0 0 1-.5-.5v-4a.5.5 0 0 1 1 0v4a.5.5 0 0 1-.5.5zm0-6a.5.5 0 0 1-.5-.5v-2a.5.5 0 0 1 1 0v2a.5.5 0 0 1-.5.5z"/><path fill="#f27c7d" d="M66.101 43.179s-.312-2.353-1.271-3.389c-1.217-1.358-2.581-1.366-3.206-1.443C57.145 38 50.428 38 50.428 38h-.015s-6.717 0-11.194.347c-.625.077-1.988.085-3.206 1.443-.958 1.036-1.271 3.389-1.271 3.389s-.32 2.761-.32 5.522v2.588c0 2.763.32 5.523.32 5.523s.312 2.352 1.271 3.386c1.218 1.358 2.816 1.317 3.528 1.459 2.56.262 10.88.343 10.88.343s6.724-.012 11.202-.355c.625-.08 1.989-.088 3.206-1.446.958-1.034 1.271-3.386 1.271-3.386s.32-2.761.32-5.523v-2.588c.001-2.762-.319-5.523-.319-5.523z"/><path fill="#1f212b" d="M50.422 62.5c-.347-.003-8.379-.084-10.933-.346-.159-.029-.294-.046-.447-.066-.848-.109-2.267-.292-3.401-1.557-1.051-1.132-1.382-3.552-1.396-3.654-.004-.036-.324-2.829-.324-5.589V48.7c0-2.758.32-5.552.323-5.58.015-.111.347-2.532 1.401-3.671 1.226-1.367 2.591-1.505 3.324-1.579l.188-.02c4.468-.347 11.188-.351 11.256-.351.082 0 6.802.004 11.249.348l.21.022c.733.074 2.1.213 3.329 1.585 1.051 1.133 1.382 3.555 1.396 3.657l.001.008c.003.028.323 2.822.323 5.581v2.588c0 2.759-.32 5.553-.323 5.581-.015.111-.347 2.53-1.402 3.668-1.22 1.362-2.583 1.504-3.315 1.581l-.193.021c-4.472.345-11.198.361-11.266.361zm.006-24c-.082 0-6.765.004-11.17.345l-.188.021c-.641.065-1.713.173-2.686 1.258-.703.76-1.066 2.51-1.147 3.121-.003.019-.316 2.758-.316 5.456v2.588c0 2.701.313 5.438.317 5.466.08.603.444 2.353 1.141 3.103.893.995 2.035 1.142 2.791 1.239.179.023.337.044.468.07 2.462.25 10.705.333 10.788.333.062 0 6.751-.016 11.159-.354l.191-.021c.641-.067 1.712-.179 2.681-1.26.701-.757 1.066-2.507 1.147-3.118.003-.019.316-2.758.316-5.458v-2.588c0-2.65-.303-5.338-.316-5.461-.083-.615-.447-2.361-1.143-3.111-.977-1.09-2.05-1.199-2.69-1.264l-.21-.023c-4.385-.338-11.066-.342-11.133-.342z"/><path fill="#fdfcee" d="M46.421 43.846v12l10-6z"/><path fill="#1f212b" d="M46.421 56.346a.5.5 0 0 1-.5-.5v-12a.5.5 0 0 1 .757-.429l10 6a.499.499 0 0 1 0 .858l-10 6a.503.503 0 0 1-.257.071zm.5-11.616v10.233l8.528-5.117-8.528-5.116z"/></svg>