<svg xmlns="http://www.w3.org/2000/svg" viewBox="0 0 100 100"><path fill="#78a2d2" d="M69 82H31c-7.18 0-13-5.82-13-13V31c0-7.18 5.82-13 13-13h38c7.18 0 13 5.82 13 13v38c0 7.18-5.82 13-13 13z"/><path fill="#1f212b" d="M66.5 78h-33C27.159 78 22 72.841 22 66.5v-33C22 27.159 27.159 22 33.5 22h33c.353 0 .699.022 1.044.053a.5.5 0 0 1 .454.542c-.025.276-.284.466-.542.454A10.77 10.77 0 0 0 66.5 23h-33C27.71 23 23 27.71 23 33.5v33C23 72.29 27.71 77 33.5 77h33C72.29 77 77 72.29 77 66.5v-17a.5.5 0 0 1 1 0v17C78 72.841 72.841 78 66.5 78zm11-38a.5.5 0 0 1-.5-.5v-2a.5.5 0 0 1 1 0v2a.5.5 0 0 1-.5.5zm0 7a.5.5 0 0 1-.5-.5v-4a.5.5 0 0 1 1 0v4a.5.5 0 0 1-.5.5z"/><path fill="#1f212b" d="M69 83H31c-7.72 0-14-6.28-14-14V31c0-7.72 6.28-14 14-14h38c7.72 0 14 6.28 14 14v38c0 7.72-6.28 14-14 14zM31 19c-6.617 0-12 5.383-12 12v38c0 6.617 5.383 12 12 12h38c6.617 0 12-5.383 12-12V31c0-6.617-5.383-12-12-12H31z"/><path fill="#fff" d="M68.403 41.093c.072-.228.102-.443.096-.635-.024-.557-.41-.958-1.313-.958h-4.035c-1.018 0-1.487.611-1.764 1.228 0 0-2.231 4.872-4.932 8.272-.147.185-1.205 1.5-2.955 1.5-.25 0-1-.125-1-1.25v-8.193c0-1.066-.265-1.557-1.126-1.557H44.5c-.626 0-1 .509-1 1 0 1.024 2 1 1.997 3.848v5.558c0 1.348-.235 1.593-.747 1.593-1.367 0-4.193-4.333-5.999-10.365-.391-1.186-.783-1.635-1.807-1.635h-4.071c-1.174 0-1.373.575-1.373 1.186 0 1.108.927 7.086 5.974 13.956 3.661 4.983 8.485 7.858 12.755 7.858 1.272 0 2.272-.625 2.272-2v-4.568C52.5 55 53.175 54.5 54 54.5c1 0 1.973.717 4.286 3.4 2.668 3.097 3.15 4.6 4.679 4.6H67c.939 0 1.475-.389 1.499-1.15a2.466 2.466 0 0 0-.084-.653c-.301-.88-1.507-3.037-3.217-5.097-.945-1.138-1.885-2.27-2.312-2.881-.289-.401-.397-.683-.385-.952.012-.282.163-.551.385-.928-.043-.001 5.005-7.29 5.517-9.746z"/><path fill="none" stroke="#1f212b" stroke-linecap="round" stroke-miterlimit="10" d="M68.403 41.093c.072-.228.102-.443.096-.635-.024-.557-.41-.958-1.313-.958h-4.035c-1.018 0-1.487.611-1.764 1.228 0 0-2.231 4.872-4.932 8.272-.147.185-1.205 1.5-2.955 1.5-.25 0-1-.125-1-1.25v-8.193c0-1.066-.265-1.557-1.126-1.557H44.5c-.626 0-1 .509-1 1 0 1.024 2 1 1.997 3.848v5.558c0 1.348-.235 1.593-.747 1.593-1.367 0-4.193-4.333-5.999-10.365-.391-1.186-.783-1.635-1.807-1.635h-4.071c-1.174 0-1.373.575-1.373 1.186 0 1.108.927 7.086 5.974 13.956 3.661 4.983 8.485 7.858 12.755 7.858 1.272 0 2.272-.625 2.272-2v-4.568C52.5 55 53.175 54.5 54 54.5c1 0 1.973.717 4.286 3.4 2.668 3.097 3.15 4.6 4.679 4.6H67c.939 0 1.475-.389 1.499-1.15a2.466 2.466 0 0 0-.084-.653c-.301-.88-1.507-3.037-3.217-5.097-.945-1.138-1.885-2.27-2.312-2.881-.289-.401-.397-.683-.385-.952.012-.282.163-.551.385-.928-.043-.001 5.005-7.29 5.517-9.746z"/></svg>