<?xml version="1.0" encoding="utf-8"?>
<!-- Generator: Adobe Illustrator 19.0.0, SVG Export Plug-In . SVG Version: 6.00 Build 0)  -->
<svg version="1.1" id="Layer_1" xmlns="http://www.w3.org/2000/svg" xmlns:xlink="http://www.w3.org/1999/xlink" x="0px" y="0px"
	 viewBox="0 0 150 150" style="enable-background:new 0 0 150 150;" xml:space="preserve">
<style type="text/css">
	.st0{fill:#3A9DCE;}
</style>
<g id="XMLID_1_">
	<path id="XMLID_11_" d="M12.9,43.5h19.7c11.4,0,21,4,21,16.9c0,7.8-3.7,12.9-9.2,15.5l12,21.2H41.9L32,78.3h-6.2v18.9H12.9V43.5z
		 M31.6,68.1c6.1,0,9.4-2.7,9.4-7.7s-3.3-6.7-9.4-6.7h-5.8v14.4H31.6z"/>
	<path id="XMLID_14_" d="M63.9,43.5h13.9l8.5,23.2c1.1,3.1,1.9,6.5,3,9.7h0.4c1.1-3.2,1.9-6.6,3-9.7l8.2-23.2h14v53.6H103V78.8
		c0-5.3,1-13.3,1.7-18.6h-0.4L99.9,73l-7.2,19.6h-7.1L78.4,73l-4.3-12.8h-0.3c0.6,5.3,1.7,13.2,1.7,18.6v18.4H63.9V43.5z"/>
	<path id="XMLID_16_" d="M127.9,35.4h8.3v82.4h-8.3V35.4z"/>
</g>
<g id="XMLID_2_">
	<path id="XMLID_4_" class="st0" d="M14.8,45.4h19.7c11.4,0,21,4,21,16.9c0,7.8-3.7,12.9-9.2,15.5l12,21.2H43.7l-9.9-18.9h-6.2v18.9
		H14.8V45.4z M33.4,70.1c6.1,0,9.4-2.7,9.4-7.7s-3.3-6.7-9.4-6.7h-5.8v14.4H33.4z"/>
	<path id="XMLID_7_" class="st0" d="M65.8,45.4h13.9l8.5,23.2c1.1,3.1,1.9,6.5,3,9.7h0.4c1.1-3.2,1.9-6.6,3-9.7l8.2-23.2h14v53.6
		h-11.7V80.7c0-5.3,1-13.3,1.7-18.6h-0.4L101.8,75l-7.2,19.6h-7.1L80.2,75l-4.3-12.8h-0.3c0.6,5.3,1.7,13.2,1.7,18.6v18.4H65.8V45.4
		z"/>
	<path id="XMLID_9_" class="st0" d="M129.8,37.3h8.3v82.4h-8.3V37.3z"/>
</g>
<g id="XMLID_3_">
</g>
<g id="XMLID_18_">
</g>
<g id="XMLID_19_">
</g>
<g id="XMLID_20_">
</g>
<g id="XMLID_21_">
</g>
<g id="XMLID_22_">
</g>
<g id="XMLID_23_">
</g>
<g id="XMLID_24_">
</g>
<g id="XMLID_25_">
</g>
<g id="XMLID_26_">
</g>
<g id="XMLID_27_">
</g>
<g id="XMLID_28_">
</g>
<g id="XMLID_29_">
</g>
<g id="XMLID_30_">
</g>
<g id="XMLID_31_">
</g>
</svg>
