<?xml version="1.0" standalone="no"?>
<!DOCTYPE svg PUBLIC "-//W3C//DTD SVG 20010904//EN"
 "http://www.w3.org/TR/2001/REC-SVG-20010904/DTD/svg10.dtd">
<svg version="1.0" xmlns="http://www.w3.org/2000/svg"
 width="700.000000pt" height="700.000000pt" viewBox="0 0 700.000000 700.000000"
 preserveAspectRatio="xMidYMid meet">
<metadata>
Created by potrace 1.14, written by Peter Selinger 2001-2017
</metadata>
<g transform="translate(0.000000,700.000000) scale(0.100000,-0.100000)"
fill="#000000" stroke="none">
<path d="M5970 3424 l0 -1926 33 2 c52 3 58 1 56 -17 -1 -10 -1 -30 0 -44 l1
-25 188 1 c103 1 189 3 192 4 3 0 5 864 5 1919 l0 1917 -45 5 c-45 5 -45 5
-45 45 l0 40 -192 2 -193 2 0 -1925z"/>
<path d="M604 3718 l1 -1253 30 -1 c17 -1 36 -2 43 -3 7 0 12 -16 12 -41 l0
-40 300 0 300 0 0 440 c0 412 1 440 18 441 91 3 226 -1 232 -8 4 -4 33 -57 65
-118 32 -60 79 -150 105 -200 103 -197 175 -333 209 -397 23 -42 43 -68 55
-70 11 -2 29 -21 42 -43 l22 -40 341 -3 342 -2 -25 42 c-59 103 -332 586 -346
613 -9 17 -34 62 -57 100 -22 39 -61 107 -86 152 l-45 82 67 38 c98 56 216
179 268 280 65 129 87 229 87 408 0 114 -4 167 -18 220 -22 84 -64 178 -104
237 -38 55 -196 211 -253 250 -68 46 -214 111 -280 123 -13 3 -46 9 -74 15
-27 6 -66 13 -85 16 -19 4 -290 9 -601 11 l-566 4 1 -1253z m1146 667 c65 -12
139 -52 145 -77 28 -115 20 -213 -24 -301 -35 -70 -89 -117 -170 -147 -73 -28
-92 -31 -258 -36 l-153 -4 0 291 0 291 213 -5 c116 -3 228 -8 247 -12z"/>
<path d="M2984 3718 l1 -1253 40 0 40 0 3 -48 3 -47 267 2 267 3 0 500 c0 494
-6 642 -30 810 -2 17 -7 62 -11 100 -3 39 -8 73 -11 78 -2 4 0 7 5 7 5 0 32
-69 60 -152 28 -84 121 -344 207 -578 87 -234 159 -433 162 -442 3 -12 15 -18
32 -18 23 0 30 -8 47 -48 l20 -48 160 2 c87 1 162 2 165 3 4 0 25 52 47 114
80 222 143 392 152 412 5 11 56 151 114 310 72 198 104 276 101 245 -13 -149
-18 -325 -19 -725 -1 -247 0 -456 2 -462 3 -8 21 -13 47 -13 46 0 52 -6 50
-57 l-1 -33 273 0 273 0 0 1249 0 1250 -42 3 c-38 3 -43 6 -44 28 -4 66 30 61
-331 58 l-327 -3 -47 -135 c-26 -74 -68 -193 -94 -265 -25 -71 -66 -186 -90
-255 -24 -69 -67 -190 -95 -270 -28 -80 -74 -219 -101 -310 -28 -91 -56 -178
-63 -194 -12 -29 -12 -29 -31 40 -26 100 -87 275 -225 649 -67 182 -149 405
-182 496 -59 164 -60 165 -88 161 -25 -4 -29 0 -42 40 l-15 43 -325 3 -326 2
2 -1252z"/>
</g>
</svg>
