<?xml version="1.0" encoding="utf-8"?>
<!-- Generator: Adobe Illustrator 19.0.0, SVG Export Plug-In . SVG Version: 6.00 Build 0)  -->
<svg version="1.1" id="Layer_1" xmlns="http://www.w3.org/2000/svg" xmlns:xlink="http://www.w3.org/1999/xlink" x="0px" y="0px"
	 viewBox="0 0 960 560" style="enable-background:new 0 0 960 560;" xml:space="preserve">
<style type="text/css">
	.st0{fill:#3597D3;}
</style>
<g id="XMLID_1_">
	<path id="XMLID_11_" d="M287.3,178h54.6c31.8,0,58.2,11,58.2,47c0,21.8-10.2,35.8-25.6,43l33.2,59h-40l-27.4-52.4h-17.2V327h-35.8
		V178z M339.1,246.4c17,0,26.2-7.4,26.2-21.4c0-14-9.2-18.6-26.2-18.6h-16v40H339.1z"/>
	<path id="XMLID_14_" d="M428.9,178h38.6l23.6,64.4c3,8.6,5.4,18,8.2,27h1c3-9,5.4-18.4,8.2-27l22.8-64.4h38.8v149h-32.6v-51
		c0-14.8,2.8-37,4.8-51.6h-1L528.9,260l-20,54.4h-19.6L469.1,260l-12-35.6h-0.8c1.8,14.6,4.6,36.8,4.6,51.6v51h-32V178z"/>
	<path id="XMLID_16_" d="M606.7,155.4h23v228.8h-23V155.4z"/>
</g>
<g id="XMLID_2_">
	<path id="XMLID_4_" class="st0" d="M292.2,184.7h54.6c31.8,0,58.2,11,58.2,47c0,21.8-10.2,35.8-25.6,43l33.2,59h-40l-27.4-52.4H328
		v52.4h-35.8V184.7z M344,253.1c17,0,26.2-7.4,26.2-21.4c0-14-9.2-18.6-26.2-18.6h-16v40H344z"/>
	<path id="XMLID_7_" class="st0" d="M433.8,184.7h38.6l23.6,64.4c3,8.6,5.4,18,8.2,27h1c3-9,5.4-18.4,8.2-27l22.8-64.4H575v149
		h-32.6v-51c0-14.8,2.8-37,4.8-51.6h-1l-12.4,35.6l-20,54.4h-19.6L474,266.7l-12-35.6h-0.8c1.8,14.6,4.6,36.8,4.6,51.6v51h-32V184.7
		z"/>
	<path id="XMLID_9_" class="st0" d="M611.6,162.1h23v228.8h-23V162.1z"/>
</g>
<g id="XMLID_3_">
</g>
<g id="XMLID_18_">
</g>
<g id="XMLID_19_">
</g>
<g id="XMLID_20_">
</g>
<g id="XMLID_21_">
</g>
<g id="XMLID_22_">
</g>
<g id="XMLID_23_">
</g>
<g id="XMLID_24_">
</g>
<g id="XMLID_25_">
</g>
<g id="XMLID_26_">
</g>
<g id="XMLID_27_">
</g>
<g id="XMLID_28_">
</g>
<g id="XMLID_29_">
</g>
<g id="XMLID_30_">
</g>
<g id="XMLID_31_">
</g>
</svg>
